HIERARCHY
ROOT Hips
{
	OFFSET 0.000000 0.000000 0.000000 
	CHANNELS 6 Xposition Yposition Zposition Zrotation Yrotation Xrotation
	JOINT LeftUpLeg
	{
		OFFSET 1.363060 -1.794630 0.839290 
		CHANNELS 3 Zrotation Yrotation Xrotation
		JOINT LeftLeg
		{
			OFFSET 2.448110 -6.726130 0.000000 
			CHANNELS 3 Zrotation Yrotation Xrotation
			JOINT LeftFoot
			{
				OFFSET 2.562200 -7.039590 0.000000 
				CHANNELS 3 Zrotation Yrotation Xrotation
				JOINT LeftToeBase
				{
					OFFSET 0.157640 -0.433110 2.322550 
					CHANNELS 3 Zrotation Yrotation Xrotation
					End Site
					{
						OFFSET 0.000000 0.000000 0.000000 
					}
				}
			}
		}
	}
	JOINT RightUpLeg
	{
		OFFSET -1.305520 -1.794630 0.839290 
		CHANNELS 3 Zrotation Yrotation Xrotation
		JOINT RightLeg
		{
			OFFSET -2.542530 -6.985550 0.000000 
			CHANNELS 3 Zrotation Yrotation Xrotation
			JOINT RightFoot
			{
				OFFSET -2.568260 -7.056230 0.000000 
				CHANNELS 3 Zrotation Yrotation Xrotation
				JOINT RightToeBase
				{
					OFFSET -0.164730 -0.452590 2.363150 
					CHANNELS 3 Zrotation Yrotation Xrotation
					End Site
					{
						OFFSET 0.000000 0.000000 0.000000 
					}
				}
			}
		}
	}
	JOINT Spine
	{
		OFFSET 0.028270 2.035590 -0.193380 
		CHANNELS 3 Zrotation Yrotation Xrotation
		JOINT Spine1
		{
			OFFSET 0.056720 2.048850 -0.042750 
			CHANNELS 3 Zrotation Yrotation Xrotation
			JOINT Neck1
			{
				OFFSET -0.054170 1.746240 0.172020 
				CHANNELS 3 Zrotation Yrotation Xrotation
				JOINT Head
				{
					OFFSET 0.104070 1.761360 -0.123970 
					CHANNELS 3 Zrotation Yrotation Xrotation
					End Site
					{
						OFFSET 0.000000 0.000000 0.000000 
					}
				}
			}
			JOINT LeftArm
			{
				OFFSET 3.362410 1.200890 -0.311210 
				CHANNELS 3 Zrotation Yrotation Xrotation
				JOINT LeftForeArm
				{
					OFFSET 4.983000 -0.000000 -0.000000 
					CHANNELS 3 Zrotation Yrotation Xrotation
					JOINT LeftHand
					{
						OFFSET 3.483560 -0.000000 -0.000000 
						CHANNELS 3 Zrotation Yrotation Xrotation
						JOINT LeftHandIndex1
						{
							OFFSET 0.715260 -0.000000 -0.000000 
							CHANNELS 3 Zrotation Yrotation Xrotation
							End Site
							{
								OFFSET 0.000000 0.000000 0.000000 
							}
						}
					}
				}
			}
			JOINT RightArm
			{
				OFFSET -3.136600 1.374050 -0.404650 
				CHANNELS 3 Zrotation Yrotation Xrotation
				JOINT RightForeArm
				{
					OFFSET -5.241900 -0.000000 -0.000000 
					CHANNELS 3 Zrotation Yrotation Xrotation
					JOINT RightHand
					{
						OFFSET -3.444170 -0.000000 -0.000000 
						CHANNELS 3 Zrotation Yrotation Xrotation
						JOINT RightHandIndex1
						{
							OFFSET -0.622530 -0.000000 -0.000000 
							CHANNELS 3 Zrotation Yrotation Xrotation
							End Site
							{
								OFFSET 0.000000 0.000000 0.000000 
							}
						}
					}
				}
			}
		}
	}
}
MOTION
Frames: 10
Frame Time: 0.041667
9.515916 18.740002 -9.966005 1.341800 -5.320308 6.953922 -12.661561 -1.747076 -20.075567 -2.728679 8.398814 21.788417 1.589566 3.099935 18.019980 0.004300 0.425700 1.169800 12.564937 4.400045 -22.774022 -10.178459 -19.400789 62.174368 0.226046 -3.555767 22.478542 -0.459300 4.347200 -12.055700 0.382260 3.313697 -3.895525 -3.446715 1.593100 -2.676717 6.981390 -1.622511 10.031591 2.453000 -0.516700 5.843900 -86.869738 5.628816 -8.769633 2.999789 -7.546140 -1.095091 -0.996546 2.551546 15.025713 -7.125000 0.000000 0.000000 91.523164 -11.443851 15.811126 -15.923952 27.718682 -6.930733 2.722147 2.653168 -8.051238 7.125000 0.000000 0.000000 
9.529192 18.745941 -9.676620 1.514613 -4.901074 6.871966 -12.943101 -1.894342 -19.205624 -2.795678 8.250961 21.659339 1.924672 2.237284 17.715819 0.039300 1.279000 3.516800 12.552768 4.023086 -24.120926 -9.863392 -19.488865 61.676113 -0.199421 -2.128163 21.678176 -0.507000 4.564200 -12.669500 0.432794 2.938215 -3.880934 -3.202579 1.356005 -2.518940 6.866977 -1.435958 10.172244 2.336700 -0.424600 5.950500 -86.907575 4.164422 -6.001213 3.441854 -8.119992 -1.166618 -1.137928 2.402350 12.308593 -7.125000 0.000000 0.000000 91.582862 -11.917249 14.103025 -13.986243 25.720013 -6.025284 2.800534 2.591342 -5.851404 7.125000 0.000000 0.000000 
9.541536 18.749784 -9.387818 1.725862 -4.544288 6.748201 -13.304695 -2.085764 -18.196557 -2.821510 8.121371 21.474538 1.798310 2.362607 16.887196 0.011000 0.677400 1.861400 12.452671 3.838947 -25.339033 -9.467252 -19.538305 60.883102 -0.623881 -0.820588 20.962650 -0.513300 4.592300 -12.749300 0.460449 2.738612 -3.859321 -2.967408 1.206150 -2.405802 6.766022 -1.433798 10.266024 2.266400 -0.432400 5.988700 -86.873855 2.883395 -2.066104 4.040661 -8.933083 -1.270166 -1.309480 2.212473 8.907198 -7.125000 0.000000 0.000000 91.692910 -12.378066 11.787258 -12.111129 23.734037 -5.279880 2.903770 2.599034 -3.600554 7.125000 0.000000 0.000000 
9.554811 18.776801 -9.089234 1.741861 -4.151113 6.575831 -13.563020 -2.272188 -17.281282 -2.738722 8.178272 21.784456 1.675504 2.408270 15.667514 0.009800 -0.639100 -1.756300 12.478654 3.709007 -26.406284 -9.041616 -19.552169 60.058330 -1.128100 0.683670 20.233487 -0.335100 3.720200 -10.290900 0.497767 2.592558 -3.833952 -2.687965 1.085171 -2.409848 6.852821 -1.491450 10.144525 2.393200 -0.475600 5.788900 -86.776763 1.612570 1.879115 4.771453 -9.878345 -1.418290 -1.398049 2.067793 5.619300 -7.125000 0.000000 0.000000 91.724279 -12.947185 9.278728 -10.301068 21.774610 -4.657505 2.931455 2.745853 -1.427727 7.125000 0.000000 0.000000 
9.566456 18.788330 -8.792047 1.793603 -3.713741 6.506539 -13.746868 -2.531931 -16.264602 -2.775878 8.040423 21.607670 1.780422 2.052524 14.937817 0.011300 -0.685300 -1.883400 12.450787 3.496303 -27.463508 -8.481559 -19.487460 58.731931 -1.554068 1.774000 19.522592 -0.337500 3.733100 -10.326900 0.540310 2.362604 -3.810738 -2.448919 0.919199 -2.277825 6.764381 -1.520081 10.142356 2.314100 -0.495100 5.749400 -86.543332 0.245124 5.520583 5.492976 -10.792697 -1.603322 -1.506005 1.996792 2.377770 -7.125000 0.000000 0.000000 91.590833 -13.291515 6.329277 -8.546626 19.681365 -4.000498 2.956706 2.697452 1.705141 7.125000 0.000000 0.000000 
9.588000 18.638688 -8.530378 1.944171 -3.412099 6.457264 -14.143147 -2.498449 -15.560578 -2.793754 7.987807 21.563706 1.903105 1.649480 14.087982 0.018900 -0.887700 -2.439800 14.126862 0.684209 -28.773611 -9.088501 -19.606747 58.520895 2.388102 -8.839941 14.228625 -9.833600 17.315200 -58.930600 0.576353 2.163699 -3.816566 -2.298989 0.786938 -2.205226 6.378222 -1.610117 10.376218 1.905800 -0.535900 6.011400 -86.215713 -0.920577 9.178630 6.281339 -11.785544 -1.818791 -1.649734 1.897155 -0.911428 -7.125000 0.000000 0.000000 91.598815 -13.606028 2.383525 -7.014101 17.618420 -3.380731 3.245185 2.171379 6.215532 7.125000 0.000000 0.000000 
9.579848 18.741865 -8.205127 2.106266 -2.905238 6.314872 -14.426940 -2.201564 -14.503591 -2.844594 7.747141 21.201239 2.081970 1.167275 13.452171 0.050800 -1.455000 -4.001600 12.465779 2.915657 -29.549990 -7.293982 -19.208521 55.257344 -1.488829 0.892581 17.972322 -1.132300 6.758400 -19.001500 0.617492 1.851465 -3.826270 -2.062537 0.572141 -2.340513 6.260837 -1.575195 10.302774 1.749000 -0.519100 5.893300 -85.890987 -1.905056 12.407789 7.194728 -12.881528 -2.055911 -1.748123 1.728139 -3.851682 -7.125000 0.000000 0.000000 91.579162 -14.077949 -1.628212 -5.611922 15.669242 -2.862672 3.235179 1.948473 10.769778 7.125000 0.000000 0.000000 
9.585904 18.721719 -7.915509 2.264699 -2.489437 6.289883 -14.743804 -1.695817 -13.822905 -2.885024 7.593440 21.000771 2.426821 0.354625 13.392556 0.047800 -1.411700 -3.882300 12.363272 2.761197 -30.277309 -6.626798 -18.973593 53.405986 -1.634581 0.928752 17.441136 -1.353700 7.365300 -20.802100 0.659577 1.523051 -3.802486 -1.659842 0.372550 -2.382809 6.564949 -1.354608 10.010346 2.057900 -0.420400 5.488300 -85.548137 -3.020393 15.348275 8.172430 -14.002549 -2.320658 -1.782121 1.573271 -6.698979 -7.125000 0.000000 0.000000 91.292569 -14.562156 -5.423355 -4.381593 13.885743 -2.412153 3.225001 1.667227 15.195585 7.125000 0.000000 0.000000 
9.586952 18.709258 -7.616576 2.290182 -2.051834 6.299572 -14.753864 -1.034988 -13.016209 -3.022622 7.198014 20.206107 2.847370 -0.516118 13.972503 0.021200 -0.940500 -2.585200 12.220063 2.803977 -30.863203 -5.639243 -18.527222 50.593018 -1.655306 0.438422 17.806151 -1.365800 7.396800 -20.896500 0.719423 1.310062 -3.795577 -1.171907 0.220849 -2.399399 6.753341 -1.184980 9.962887 2.286000 -0.348600 5.391200 -85.316554 -4.181386 18.243400 9.201763 -15.144902 -2.612180 -1.768733 1.430188 -9.516015 -7.125000 0.000000 0.000000 91.029013 -15.260346 -9.600777 -3.443687 12.399388 -2.114705 3.273969 1.424369 19.824621 7.125000 0.000000 0.000000 
9.594871 18.703902 -7.308442 2.319839 -1.700817 6.287808 -14.827166 -0.459296 -12.308030 -3.058407 6.994101 19.901303 3.220415 -1.387389 13.969946 0.016300 -0.824000 -2.264700 12.021468 2.857315 -31.296631 -4.693298 -18.025537 47.925636 -1.802566 0.289990 18.011401 -1.178300 6.889600 -19.388800 0.789252 1.104708 -3.832042 -0.804965 0.077194 -2.546354 6.558080 -1.124779 10.076257 2.104200 -0.328600 5.495700 -85.223197 -5.060560 20.703359 10.243702 -16.291869 -2.954554 -1.817112 1.314352 -11.777472 -7.125000 0.000000 0.000000 90.873160 -16.163113 -14.518566 -2.679465 11.022227 -1.917684 3.383408 1.217425 24.914623 7.125000 0.000000 0.000000 
